<svg xmlns="http://www.w3.org/2000/svg" viewBox="0 0 32 32">
  <defs>
    <linearGradient id="grad1" x1="0%" y1="0%" x2="100%" y2="100%">
      <stop offset="0%" style="stop-color:#10b981;stop-opacity:1" />
      <stop offset="100%" style="stop-color:#14b8a6;stop-opacity:1" />
    </linearGradient>
  </defs>
  
  <!-- Background circle -->
  <circle cx="16" cy="16" r="14" fill="url(#grad1)"/>
  
  <!-- Simple leaf icon -->
  <path d="M16 10c-3 0-5 2-5 5s2 5 5 5c1.5 0 2.8-.7 3.5-1.8-.7.4-1.5.6-2.3.6-2.5 0-4.5-2-4.5-4.5 0-.8.2-1.6.6-2.3-1.1.7-1.8 2-1.8 3.5 0 3 2 5 5 5 3 0 5-2 5-5s-2-5-5-5z" fill="white"/>
  
  <!-- Health cross -->
  <rect x="14.5" y="12" width="3" height="8" rx="0.5" fill="white"/>
  <rect x="12" y="14.5" width="8" height="3" rx="0.5" fill="white"/>
</svg>
